<?xml version="1.0" encoding="UTF-8" standalone="no"?>
<svg width="88px" height="88px" viewBox="0 0 88 88" version="1.1" xmlns="http://www.w3.org/2000/svg" xmlns:xlink="http://www.w3.org/1999/xlink" xmlns:sketch="http://www.bohemiancoding.com/sketch/ns">
    <!-- Generator: Sketch 3.4.2 (15855) - http://www.bohemiancoding.com/sketch -->
    <title>logo</title>
    <desc>Created with Sketch.</desc>
    <defs>
        <path id="path-1" d="M0,0.347 L87.653,0.347 L87.653,88 L0,88 L0,0.347 Z"></path>
        <path id="path-3" d="M0,0.347 L87.653,0.347 L87.653,88 L0,88 L0,0.347 Z"></path>
        <path id="path-5" d="M0,0.347 L87.653,0.347 L87.653,88 L0,88 L0,0.347 Z"></path>
        <path id="path-7" d="M0,0.347 L87.653,0.347 L87.653,88 L0,88 L0,0.347 Z"></path>
    </defs>
    <g id="Page-1" stroke="none" stroke-width="1" fill="none" fill-rule="evenodd" sketch:type="MSPage">
        <g id="logo" sketch:type="MSLayerGroup">
            <g id="Group-4">
                <mask id="mask-2" sketch:name="Clip 3" fill="white">
                    <use xlink:href="#path-1"></use>
                </mask>
                <g id="Clip-3"></g>
                <path d="M329.448,592.635 L-140.029,592.635 L-140.029,-79.331 L329.448,-79.331 L329.448,592.635 Z" id="Stroke-2" stroke="#FFFFFF" sketch:type="MSShapeGroup" mask="url(#mask-2)"></path>
            </g>
            <g id="Group-24">
                <path d="M69.419,7.7852 C84.469,22.7892 84.506,47.2392 69.503,62.2892 C69.322,62.4712 69.084,62.5622 68.846,62.5622 C68.61,62.5622 68.373,62.4712 68.192,62.2912 C67.83,61.9302 67.829,61.3432 68.19,60.9812 C82.472,46.6542 82.437,23.3802 68.111,9.0982 L69.419,7.7852 Z" id="Fill-5" fill="#FFFFFF" sketch:type="MSShapeGroup"></path>
                <path d="M80.2149,69.7655 C72.9469,77.0565 63.2749,81.0795 52.9799,81.0955 L52.9189,81.0955 C42.6469,81.0955 32.9869,77.1035 25.7109,69.8495 C25.3489,69.4875 25.3479,68.9015 25.7089,68.5385 C26.0699,68.1765 26.6569,68.1755 27.0189,68.5365 C33.9459,75.4415 43.1419,79.2425 52.9189,79.2425 L52.9769,79.2425 C62.7769,79.2275 71.9839,75.3965 78.9019,68.4565 L80.2149,69.7655 Z" id="Fill-7" fill="#FFFFFF" sketch:type="MSShapeGroup"></path>
                <path d="M7.4384,18.581 C22.4424,3.532 46.8924,3.494 61.9424,18.497 C62.3054,18.859 62.3064,19.445 61.9454,19.808 C61.5834,20.17 60.9964,20.171 60.6344,19.81 C46.3084,5.528 23.0334,5.564 8.7514,19.89 L7.4384,18.581 Z" id="Fill-9" fill="#FFFFFF" sketch:type="MSShapeGroup"></path>
                <path d="M18.2349,80.5613 C10.9439,73.2933 6.9199,63.6213 6.9049,53.3263 C6.8889,43.0323 10.8829,33.3473 18.1509,26.0573 C18.5129,25.6943 19.0999,25.6943 19.4619,26.0553 C19.8239,26.4163 19.8249,27.0033 19.4639,27.3653 C12.5449,34.3053 8.7429,43.5243 8.7579,53.3233 C8.7729,63.1233 12.6039,72.3303 19.5429,79.2483 L18.2349,80.5613 Z" id="Fill-11" fill="#FFFFFF" sketch:type="MSShapeGroup"></path>
                <g id="Group-15">
                    <mask id="mask-4" sketch:name="Clip 14" fill="white">
                        <use xlink:href="#path-3"></use>
                    </mask>
                    <g id="Clip-14"></g>
                    <path d="M36.1934,0.3468 L36.2544,0.3468 C46.5264,0.3468 56.1864,4.3388 63.4624,11.5928 C70.7524,18.8608 74.7764,28.5328 74.7924,38.8278 C74.7924,39.3398 74.3794,39.7548 73.8664,39.7558 L73.8654,39.7558 C73.3544,39.7558 72.9394,39.3418 72.9384,38.8308 C72.9234,29.0308 69.0934,19.8238 62.1534,12.9058 C55.2274,6.0008 46.0314,2.1998 36.2544,2.1998 L36.1954,2.1998 L36.1944,2.1998 L36.1934,0.3468 Z" id="Fill-13" fill="#FFFFFF" sketch:type="MSShapeGroup" mask="url(#mask-4)"></path>
                </g>
                <g id="Group-18">
                    <mask id="mask-6" sketch:name="Clip 17" fill="white">
                        <use xlink:href="#path-5"></use>
                    </mask>
                    <g id="Clip-17"></g>
                    <path d="M87.6532,36.5396 C87.6692,46.8346 83.6752,56.5186 76.4072,63.8086 C69.1392,71.0996 59.4662,75.1226 49.1722,75.1386 L49.1712,75.1386 C48.6602,75.1386 48.2452,74.7256 48.2442,74.2136 C48.2432,73.7016 48.6572,73.2866 49.1692,73.2856 C58.9692,73.2706 68.1762,69.4406 75.0942,62.5006 C82.0132,55.5606 85.8152,46.3416 85.8002,36.5426 L87.6532,36.5396 Z" id="Fill-16" fill="#FFFFFF" sketch:type="MSShapeGroup" mask="url(#mask-6)"></path>
                </g>
                <g id="Group-21">
                    <mask id="mask-8" sketch:name="Clip 20" fill="white">
                        <use xlink:href="#path-7"></use>
                    </mask>
                    <g id="Clip-20"></g>
                    <path d="M4.55317479e-16,51.8073 C-0.016,41.5133 3.978,31.8283 11.247,24.5373 C18.515,17.2473 28.187,13.2233 38.481,13.2083 L38.482,13.2083 C38.993,13.2083 39.408,13.6213 39.409,14.1333 C39.41,14.6453 38.996,15.0603 38.484,15.0613 C28.684,15.0763 19.478,18.9063 12.559,25.8463 C5.64,32.7863 1.838,42.0053 1.853,51.8043 L4.55317479e-16,51.8073 Z" id="Fill-19" fill="#FFFFFF" sketch:type="MSShapeGroup" mask="url(#mask-8)"></path>
                </g>
                <path d="M51.4605,88 L51.4005,88 C30.1755,88 12.8935,70.751 12.8615,49.519 C12.8605,49.007 13.2745,48.592 13.7865,48.591 L13.7875,48.591 C14.2985,48.591 14.7135,49.005 14.7145,49.516 C14.7455,69.726 31.1985,86.147 51.4005,86.147 L51.4585,86.147 L51.4595,86.147 L51.4605,88 Z" id="Fill-22" fill="#FFFFFF" sketch:type="MSShapeGroup"></path>
            </g>
        </g>
    </g>
</svg>